# xmcd
#
# Track frame offsets: 
#        150
#        11708
#        21992
#        33464
#        47329
#        59576
#        71954
#        93715
#        106769
#        117684
#        128836
#        139375
#        151938
#        162942
#        173558
#        187360
#
# Disc length: 2661 seconds
#
# Revision: 0
# Processed by: cddbd v1.5.2PL0 Copyright (c) Steve Scherf et al.
# Submitted via: ExactAudioCopy v1.0b4
#
DISCID=ea0a6310
DTITLE=Elmore James - One Way Out 
DYEAR=1980
DGENRE=Blues
TTITLE0=Talk To Me Baby (I Can't Hold Out)
TTITLE1=Shake Your Money Maker
TTITLE2=Can't Stop Lovin' My Baby
TTITLE3=It Hurts Me Too
TTITLE4=The Sky Is Crying
TTITLE5=Cry For Me Baby
TTITLE6=Something Inside Of Me
TTITLE7=Standing At The Crossroads
TTITLE8=Coming Home
TTITLE9=Rollin' And Tumblin'
TTITLE10=Take Me Where You Go
TTITLE11=I Need You
TTITLE12=Person To Person
TTITLE13=One Way Out
TTITLE14=The Twelve Year Old Boy
TTITLE15=Dust My Broom (I Believe My Time Ain't Long)
EXTD=
EXTT0=
EXTT1=
EXTT2=
EXTT3=
EXTT4=
EXTT5=
EXTT6=
EXTT7=
EXTT8=
EXTT9=
EXTT10=
EXTT11=
EXTT12=
EXTT13=
EXTT14=
EXTT15=
PLAYORDER=
